<svg width="18" height="16" viewBox="0 0 18 16" fill="none" xmlns="http://www.w3.org/2000/svg">
<path d="M17.2188 2H4.03125L3.75 0.625C3.6875 0.28125 3.375 0 3.03125 0H0.375C0.15625 0 0 0.1875 0 0.375V0.625C0 0.84375 0.15625 1 0.375 1H2.8125L5 12.6562C4.6875 13.0312 4.5 13.5 4.5 14C4.5 15.125 5.375 16 6.5 16C7.59375 16 8.5 15.125 8.5 14C8.5 13.7188 8.375 13.2812 8.21875 13H12.75C12.5938 13.2812 12.5 13.7188 12.5 14C12.5 15.125 13.375 16 14.5 16C15.5938 16 16.5 15.125 16.5 14C16.5 13.4688 16.25 12.9375 15.875 12.5938C15.8125 12.25 15.5 12 15.1562 12H5.90625L5.53125 10H15.875C16.25 10 16.5312 9.78125 16.625 9.40625L17.9688 2.90625C18.0625 2.4375 17.7188 2 17.2188 2ZM7.5 14C7.5 14.5625 7.03125 15 6.5 15C5.9375 15 5.5 14.5625 5.5 14C5.5 13.4688 5.9375 13 6.5 13C7.03125 13 7.5 13.4688 7.5 14ZM14.5 15C13.9375 15 13.5 14.5625 13.5 14C13.5 13.4688 13.9375 13 14.5 13C15.0312 13 15.5 13.4688 15.5 14C15.5 14.5625 15.0312 15 14.5 15ZM15.6875 9H5.34375L4.21875 3H16.9375L15.6875 9Z" fill="#111111"/>
</svg>
