<svg width="68" height="68" viewBox="0 0 68 68" fill="none" xmlns="http://www.w3.org/2000/svg">
<path d="M42.3438 27.1562C42.25 27.0625 41.9688 26.9688 41.7812 26.9688C41.5938 26.9688 41.4062 26.9688 41.3125 27.1562L31.1875 37.1875L26.5938 32.6875C26.5 32.5938 26.3125 32.5 26.125 32.5C25.9375 32.5 25.75 32.5 25.5625 32.6875L24.5312 33.7188C24.25 34 24.25 34.4688 24.5312 34.75L30.625 40.9375C30.8125 41.125 31 41.125 31.1875 41.125C31.375 41.125 31.5625 41.125 31.75 40.9375L43.375 29.3125C43.6562 28.9375 43.6562 28.4688 43.375 28.1875L42.3438 27.1562ZM58 34C58 30.7188 56.125 27.625 53.3125 26.0312C54.1562 22.8438 53.3125 19.4688 50.9688 17.0312C48.5312 14.6875 45.1562 13.8438 41.9688 14.6875C40.375 11.875 37.2812 10 34 10C30.625 10 27.5312 11.875 25.9375 14.6875C22.75 13.8438 19.375 14.6875 17.0312 17.0312C14.5938 19.4688 13.75 22.8438 14.5938 26.0312C11.7812 27.625 10 30.7188 10 34C10 37.375 11.7812 40.4688 14.5938 42.0625C13.75 45.25 14.5938 48.625 17.0312 50.9688C19.4688 53.5 22.9375 54.25 25.9375 53.4062C27.5312 56.2188 30.625 58 34 58C37.2812 58 40.375 56.2188 41.9688 53.4062C45.0625 54.25 48.4375 53.5 50.9688 50.9688C53.3125 48.625 54.1562 45.25 53.3125 42.0625C56.125 40.4688 58 37.375 58 34ZM49.375 40.4688C49.9375 41.5938 52.1875 45.5312 48.8125 48.9062C46.0938 51.625 43.375 50.875 40.375 49.4688C39.9062 50.5938 38.7812 55 34 55C29.0312 55 27.9062 50.4062 27.5312 49.4688C24.5312 50.875 21.8125 51.625 19.0938 48.9062C15.625 45.4375 18.0625 41.3125 18.5312 40.4688C17.4062 40 13 38.7812 13 34C13 29.125 17.5938 28 18.5312 27.625C17.9688 26.5 15.7188 22.5625 19.0938 19.1875C22.5625 15.7188 26.6875 18.1562 27.5312 18.625C28 17.4062 29.2188 13 34 13C38.875 13 40 17.6875 40.375 18.625C41.5 18.0625 45.4375 15.8125 48.8125 19.1875C52.2812 22.6562 49.8438 26.7812 49.375 27.625C50.5938 28.0938 55 29.2188 55 34C55 38.9688 50.3125 40.0938 49.375 40.4688Z" fill="#00A600"/>
</svg>
