<svg width="68" height="68" viewBox="0 0 68 68" fill="none" xmlns="http://www.w3.org/2000/svg">
<path d="M30.25 27C30.625 27 31 26.7188 31 26.25V24.75C31 24.375 30.625 24 30.25 24H7.75C7.28125 24 7 24.375 7 24.75V26.25C7 26.7188 7.28125 27 7.75 27H30.25ZM63.25 45H61V34.875C61 33.375 60.3438 31.7812 59.2188 30.6562L51.3438 22.7812C50.2188 21.6562 48.7188 21 47.125 21H43V16.4062C43 13.9688 40.8438 12 38.3125 12H14.5938C12.0625 12 10 13.9688 10 16.4062V18H4.75C4.28125 18 4 18.375 4 18.75V20.25C4 20.7188 4.28125 21 4.75 21H27.25C27.625 21 28 20.7188 28 20.25V18.75C28 18.375 27.625 18 27.25 18H13V16.4062C13 15.6562 13.6562 15 14.5938 15H38.3125C39.25 15 40 15.6562 40 16.4062V45H23.4062C22.0938 43.2188 19.9375 42 17.5 42C15.7188 42 14.2188 42.6562 13 43.5938V36H10V49.5C10 53.7188 13.2812 57 17.5 57C21.625 57 25 53.7188 25 49.5C25 49.0312 24.9062 48.5625 24.8125 48H43.0938C43 48.5625 43 49.0312 43 49.5C43 53.7188 46.2812 57 50.5 57C54.625 57 58 53.7188 58 49.5C58 49.0312 57.9062 48.5625 57.8125 48H63.25C63.625 48 64 47.7188 64 47.25V45.75C64 45.375 63.625 45 63.25 45ZM17.5 54C14.9688 54 13 52.0312 13 49.5C13 47.0625 14.9688 45 17.5 45C19.9375 45 22 47.0625 22 49.5C22 52.0312 19.9375 54 17.5 54ZM43 24H47.125C47.875 24 48.625 24.375 49.1875 24.9375L57.0625 32.8125C57.1562 32.9062 57.1562 33 57.25 33.0938H43V24ZM50.5 54C47.9688 54 46 52.0312 46 49.5C46 47.0625 47.9688 45 50.5 45C52.9375 45 55 47.0625 55 49.5C55 52.0312 52.9375 54 50.5 54ZM58 45H56.4062C55.0938 43.2188 52.9375 42 50.5 42C48.0625 42 45.9062 43.2188 44.5 45H43V36H58V45ZM28 32.25V30.75C28 30.375 27.625 30 27.25 30H4.75C4.28125 30 4 30.375 4 30.75V32.25C4 32.7188 4.28125 33 4.75 33H27.25C27.625 33 28 32.7188 28 32.25Z" fill="#00A600"/>
</svg>
