<svg width="68" height="68" viewBox="0 0 68 68" fill="none" xmlns="http://www.w3.org/2000/svg">
<path d="M25 34C31.5625 34 37 28.6562 37 22C37 15.4375 31.5625 10 25 10C18.3438 10 13 15.4375 13 22C13 28.6562 18.3438 34 25 34ZM25 13C29.875 13 34 17.125 34 22C34 26.9688 29.875 31 25 31C20.0312 31 16 26.9688 16 22C16 17.125 20.0312 13 25 13ZM50.5 31C43 31 37 37.0938 37 44.5C37 52 43 58 50.5 58C57.9062 58 64 52 64 44.5C64 37.0938 57.9062 31 50.5 31ZM50.5 55C44.6875 55 40 50.3125 40 44.5C40 38.7812 44.6875 34 50.5 34C56.2188 34 61 38.7812 61 44.5C61 50.3125 56.2188 55 50.5 55ZM37.75 55H8.5C7.65625 55 7 54.3438 7 53.5V49.6562C7 44.3125 11.2188 40 16.5625 40C18.4375 40 20.2188 41.5 25 41.5C29.6875 41.5 31.5625 40 33.3438 40C33.8125 40 34.1875 40.0938 34.5625 40.1875C34.8438 39.1562 35.2188 38.2188 35.6875 37.2812C34.9375 37.0938 34.1875 37 33.3438 37C30.7188 37 29.4062 38.5 25 38.5C20.5938 38.5 19.2812 37 16.5625 37C9.625 37 4 42.7188 4 49.6562V53.5C4 56.0312 5.96875 58 8.5 58H40.9375C39.8125 57.1562 38.6875 56.2188 37.75 55ZM55.5625 43H52V37.9375C52 37.4688 51.5312 37 51.0625 37H49.8438C49.375 37 49 37.4688 49 37.9375V45.1562C49 45.625 49.375 46 49.8438 46H55.5625C56.0312 46 56.5 45.625 56.5 45.1562V43.9375C56.5 43.4688 56.0312 43 55.5625 43Z" fill="#00A600"/>
</svg>
