<svg width="32" height="24" viewBox="0 0 32 24" fill="none" xmlns="http://www.w3.org/2000/svg">
<path d="M8.5625 2.9375C7.9375 3.5 7.9375 4.5 8.5625 5.0625L13.4375 9.5H1.5C0.625 9.5 0 10.1875 0 11V13C0 13.875 0.625 14.5 1.5 14.5H13.4375L8.625 18.9375C7.9375 19.5625 7.9375 20.5 8.5625 21.125L9.9375 22.5C10.5 23.0625 11.4375 23.0625 12.0625 22.5L21.5 13.125C22.125 12.5 22.125 11.5625 21.5 10.9375L12.0625 1.5625C11.4375 0.9375 10.5 1 9.9375 1.5625L8.5625 2.9375ZM32 18V6C32 2.6875 29.3125 0 26 0H20.75C20.3125 0 20 0.375 20 0.75V3.25C20 3.6875 20.3125 4 20.75 4H26C27.0625 4 28 4.9375 28 6V18C28 19.125 27.0625 20 26 20H20.75C20.3125 20 20 20.375 20 20.75V23.25C20 23.6875 20.3125 24 20.75 24H26C29.3125 24 32 21.3125 32 18Z" fill="black"/>
</svg>
