<svg width="16" height="12" viewBox="0 0 16 12" fill="none" xmlns="http://www.w3.org/2000/svg">
<mask id="mask0_1365_5283" style="mask-type:alpha" maskUnits="userSpaceOnUse" x="0" y="0" width="16" height="12">
<rect width="16" height="12" fill="#C4C4C4"/>
</mask>
<g mask="url(#mask0_1365_5283)">
<path fill-rule="evenodd" clip-rule="evenodd" d="M0 0H16V0.923438H0V0ZM0 1.84688H16V2.77031H0V1.84688ZM0 3.69141H16V4.61719H0V3.69141ZM0 5.53828H16V6.46172H0V5.53828ZM0 7.38516H16V8.30859H0V7.38516ZM0 9.22969H16V10.1531H0V9.22969ZM0 11.0766H16V12H0V11.0766Z" fill="#BD3D44"/>
<path fill-rule="evenodd" clip-rule="evenodd" d="M0 0.923828H16V1.84727H0V0.923828ZM0 2.7707H16V3.6918H0V2.7707ZM0 4.61523H16V5.53867H0V4.61523ZM0 6.46211H16V7.38555H0V6.46211ZM0 8.30898H16V9.23242H0V8.30898ZM0 10.1535H16V11.077H0V10.1535Z" fill="white"/>
<path fill-rule="evenodd" clip-rule="evenodd" d="M0 0H9.11953V6.46172H0V0Z" fill="#192F5D"/>
<path fill-rule="evenodd" clip-rule="evenodd" d="M0.759766 0.276367L0.844141 0.531836H1.11133L0.895703 0.688867L0.977734 0.94668L0.759766 0.787305L0.544141 0.944336L0.626172 0.688867L0.408203 0.531836H0.680078L0.759766 0.276367ZM2.28086 0.276367L2.36289 0.531836H2.63242L2.41445 0.688867L2.49648 0.94668L2.28086 0.787305L2.06289 0.944336L2.14492 0.688867L1.9293 0.531836H2.19648L2.28086 0.276367ZM3.79961 0.276367L3.88398 0.531836H4.14883L3.9332 0.688867L4.01523 0.94668L3.79727 0.787305L3.58164 0.944336L3.66367 0.688867L3.4457 0.531836H3.71523L3.79961 0.276367ZM5.3207 0.276367L5.40273 0.531836H5.67227L5.4543 0.688867L5.53867 0.94668L5.3207 0.787305L5.10273 0.944336L5.18711 0.688867L4.96914 0.531836H5.23633L5.3207 0.276367ZM6.83945 0.276367L6.92383 0.531836H7.19102L6.97539 0.688867L7.05742 0.94668L6.83945 0.787305L6.62383 0.944336L6.70586 0.688867L6.49023 0.531836H6.75742L6.83945 0.276367ZM8.36055 0.276367L8.44258 0.531836H8.71211L8.49414 0.688867L8.57852 0.94668L8.36055 0.787305L8.14258 0.944336L8.22695 0.688867L8.00898 0.531836H8.27852L8.36055 0.276367ZM1.52148 0.923242L1.60352 1.17871H1.87305L1.65508 1.33574L1.73477 1.59121L1.52383 1.43418L1.30586 1.59121L1.3832 1.33574L1.17227 1.17871H1.43945L1.52148 0.923242ZM3.04023 0.923242L3.12461 1.17871H3.3918L3.17383 1.33574L3.2582 1.59121L3.04023 1.43418L2.82227 1.59121L2.90664 1.33574L2.68867 1.17871H2.9582L3.04023 0.923242ZM4.56133 0.923242L4.64336 1.17871H4.91289L4.69492 1.33574L4.77695 1.59121L4.56133 1.43418L4.34336 1.59121L4.42539 1.33574L4.20977 1.17871H4.47695L4.56133 0.923242ZM6.08008 0.923242L6.16445 1.17871H6.43164L6.21367 1.33574L6.29805 1.59121L6.08008 1.43418L5.86445 1.59121L5.94648 1.33574L5.72852 1.17871H6.00039L6.08008 0.923242ZM7.60117 0.923242L7.6832 1.17871H7.95273L7.73477 1.33574L7.8168 1.59121L7.60117 1.43418L7.3832 1.59121L7.46523 1.33574L7.24961 1.17871H7.5168L7.60117 0.923242ZM0.759766 1.56777L0.844141 1.82793H1.11133L0.895703 1.98496L0.977734 2.24043L0.759766 2.08105L0.544141 2.24043L0.626172 1.98262L0.408203 1.82559H0.680078L0.759766 1.56777ZM2.28086 1.56777L2.36289 1.82559H2.63242L2.41445 1.98262L2.49648 2.23809L2.28086 2.07871L2.06289 2.23809L2.14492 1.98027L1.9293 1.82324H2.19648L2.28086 1.56777ZM3.79961 1.56777L3.88398 1.82559H4.14883L3.9332 1.98262L4.01523 2.23809L3.79727 2.07871L3.58164 2.23809L3.66367 1.98027L3.4457 1.82324H3.71523L3.79961 1.56777ZM5.3207 1.56777L5.40273 1.82559H5.67227L5.4543 1.98262L5.53867 2.23809L5.3207 2.07871L5.10273 2.23809L5.18711 1.98027L4.96914 1.82324H5.23633L5.3207 1.56777ZM6.83945 1.56777L6.92383 1.82559H7.19102L6.97539 1.98262L7.05742 2.23809L6.83945 2.07871L6.62383 2.23809L6.70586 1.98027L6.49023 1.82324H6.75742L6.83945 1.56777ZM8.36055 1.56777L8.44258 1.82559H8.71211L8.49414 1.98262L8.57852 2.23809L8.36055 2.07871L8.14258 2.23809L8.22695 1.98027L8.00898 1.82324H8.27852L8.36055 1.56777ZM1.52148 2.21465L1.60352 2.47012H1.87305L1.65508 2.62715L1.73711 2.88496L1.52148 2.72559L1.30352 2.88262L1.38555 2.62715L1.16992 2.47012H1.43711L1.52148 2.21465ZM3.04023 2.21465L3.12461 2.47012H3.3918L3.17383 2.62715L3.2582 2.88496L3.04023 2.72559L2.82227 2.88262L2.90664 2.62715L2.68867 2.47012H2.9582L3.04023 2.21465ZM4.56133 2.21465L4.64336 2.47012H4.91289L4.69492 2.62715L4.77695 2.88496L4.56133 2.72559L4.34336 2.88262L4.42539 2.62715L4.20977 2.47012H4.47695L4.56133 2.21465ZM6.08008 2.21465L6.16445 2.47012H6.43164L6.21602 2.62715L6.29805 2.88496L6.08008 2.72559L5.86445 2.88262L5.94648 2.62715L5.72852 2.47012H6.00039L6.08008 2.21465ZM7.60117 2.21465L7.6832 2.47012H7.95273L7.73477 2.62715L7.8168 2.88496L7.60117 2.72559L7.3832 2.88262L7.46523 2.62715L7.24961 2.47012H7.5168L7.60117 2.21465ZM0.759766 2.86152L0.844141 3.11699H1.11133L0.895703 3.27402L0.977734 3.53184L0.759766 3.37246L0.544141 3.52949L0.626172 3.27402L0.408203 3.11699H0.680078L0.759766 2.86152ZM2.28086 2.86152L2.36289 3.11699H2.63242L2.41445 3.27402L2.49648 3.52949L2.28086 3.37246L2.06289 3.52949L2.14492 3.27402L1.9293 3.11699H2.19648L2.28086 2.86152ZM3.79961 2.86152L3.88398 3.11699H4.14883L3.9332 3.27402L4.01523 3.53184L3.79727 3.37246L3.58164 3.52949L3.66367 3.27402L3.4457 3.11699H3.71523L3.79961 2.86152ZM5.3207 2.86152L5.40273 3.11699H5.67227L5.4543 3.27402L5.53867 3.53184L5.3207 3.37246L5.10273 3.52949L5.18711 3.27402L4.96914 3.11699H5.23633L5.3207 2.86152ZM6.83945 2.86152L6.92383 3.11699H7.19102L6.97539 3.27402L7.05742 3.53184L6.83945 3.37246L6.62383 3.52949L6.70586 3.27402L6.49023 3.11699H6.75742L6.83945 2.86152ZM8.36055 2.86152L8.44258 3.11699H8.71211L8.49414 3.27402L8.57852 3.53184L8.36055 3.37246L8.14258 3.52949L8.22695 3.27402L8.00898 3.11699H8.27852L8.36055 2.86152ZM1.52148 3.5084L1.60352 3.76387H1.87305L1.65508 3.9209L1.73711 4.17637L1.52148 4.01699L1.30352 4.17637L1.38555 3.91855L1.16992 3.76152H1.43711L1.52148 3.5084ZM3.04023 3.5084L3.12461 3.76387H3.3918L3.17383 3.9209L3.2582 4.17637L3.04023 4.01699L2.82227 4.17637L2.90664 3.91855L2.68867 3.76152H2.9582L3.04023 3.5084ZM4.56133 3.5084L4.64336 3.76387H4.91289L4.69492 3.9209L4.77695 4.17637L4.56133 4.01699L4.34336 4.17637L4.42539 3.91855L4.20977 3.76152H4.47695L4.56133 3.5084ZM6.08008 3.5084L6.16445 3.76387H6.43164L6.21602 3.9209L6.29805 4.17637L6.08008 4.01699L5.86445 4.17637L5.94648 3.91855L5.72852 3.76152H6.00039L6.08008 3.5084ZM7.60117 3.5084L7.6832 3.76387H7.95273L7.73477 3.9209L7.8168 4.17637L7.60117 4.01699L7.3832 4.17637L7.46523 3.91855L7.24961 3.76152H7.5168L7.60117 3.5084ZM0.759766 4.15293L0.844141 4.41074H1.11133L0.895703 4.56777L0.977734 4.8209L0.759766 4.66387L0.544141 4.8209L0.626172 4.56543L0.408203 4.4084H0.680078L0.759766 4.15293ZM2.28086 4.15293L2.36289 4.41074H2.63242L2.41445 4.56777L2.49883 4.8209L2.28086 4.66387L2.06289 4.8209L2.14727 4.56543L1.9293 4.4084H2.19648L2.28086 4.15293ZM3.79961 4.15293L3.88398 4.41074H4.14883L3.9332 4.56777L4.01523 4.8209L3.79727 4.66387L3.58164 4.8209L3.66367 4.56543L3.4457 4.4084H3.71523L3.79961 4.15293ZM5.3207 4.15293L5.40273 4.41074H5.67227L5.4543 4.56777L5.53867 4.8209L5.3207 4.66387L5.10273 4.8209L5.18711 4.56543L4.96914 4.4084H5.23633L5.3207 4.15293ZM6.83945 4.15293L6.92383 4.41074H7.19102L6.97539 4.56777L7.05742 4.8209L6.83945 4.66387L6.62383 4.8209L6.70586 4.56543L6.49023 4.4084H6.75742L6.83945 4.15293ZM8.36055 4.15293L8.44258 4.41074H8.71211L8.49414 4.56777L8.57852 4.8209L8.36055 4.66387L8.14258 4.8209L8.22695 4.56543L8.00898 4.4084H8.27852L8.36055 4.15293ZM1.52148 4.7998L1.60352 5.05527H1.87305L1.65508 5.2123L1.73711 5.47012L1.52148 5.31074L1.30352 5.46777L1.38555 5.2123L1.16992 5.05527H1.43711L1.52148 4.7998ZM3.04023 4.7998L3.12461 5.05527H3.3918L3.17383 5.2123L3.2582 5.47012L3.04023 5.31074L2.82227 5.46777L2.90664 5.2123L2.68867 5.05527H2.9582L3.04023 4.7998ZM4.56133 4.7998L4.64336 5.05527H4.91289L4.69492 5.2123L4.77695 5.47012L4.56133 5.31074L4.34336 5.46777L4.42539 5.2123L4.20977 5.05527H4.47695L4.56133 4.7998ZM6.08008 4.7998L6.16445 5.05527H6.43164L6.21602 5.2123L6.29805 5.47012L6.08008 5.31074L5.86445 5.46777L5.94648 5.2123L5.72852 5.05527H6.00039L6.08008 4.7998ZM7.60117 4.7998L7.6832 5.05527H7.95273L7.73477 5.2123L7.8168 5.47012L7.60117 5.31074L7.3832 5.46777L7.46523 5.2123L7.24961 5.05527H7.5168L7.60117 4.7998ZM0.759766 5.44668L0.844141 5.70215H1.11133L0.895703 5.85918L0.977734 6.11465L0.759766 5.95762L0.544141 6.11465L0.626172 5.85684L0.408203 5.6998H0.680078L0.759766 5.44668ZM2.28086 5.44668L2.36289 5.70215H2.63242L2.41445 5.85918L2.49883 6.11465L2.28086 5.95762L2.06289 6.11465L2.14727 5.85684L1.9293 5.6998H2.19648L2.28086 5.44668ZM3.79961 5.44668L3.88398 5.70215H4.14883L3.93789 5.85918L4.01992 6.11465L3.80195 5.95762L3.58633 6.11465L3.66836 5.85684L3.45039 5.6998H3.71992L3.79961 5.44668ZM5.3207 5.44668L5.40273 5.70215H5.67227L5.4543 5.85918L5.53867 6.11465L5.3207 5.95762L5.10273 6.11465L5.18711 5.85684L4.96914 5.6998H5.23633L5.3207 5.44668ZM6.83945 5.44668L6.92383 5.70215H7.19102L6.97539 5.85918L7.05742 6.11465L6.83945 5.95762L6.62383 6.11465L6.70586 5.85684L6.49023 5.6998H6.75742L6.83945 5.44668ZM8.36055 5.44668L8.44258 5.70215H8.71211L8.49414 5.85918L8.57852 6.11465L8.36055 5.95762L8.14258 6.11465L8.22695 5.85684L8.00898 5.6998H8.27852L8.36055 5.44668Z" fill="white"/>
</g>
</svg>
